<?xml version="1.0" standalone="no"?>
<!DOCTYPE svg PUBLIC "-//W3C//DTD SVG 20010904//EN"
 "http://www.w3.org/TR/2001/REC-SVG-20010904/DTD/svg10.dtd">
<svg version="1.0" xmlns="http://www.w3.org/2000/svg"
 width="1563.000000pt" height="1563.000000pt" viewBox="0 0 1563.000000 1563.000000"
 preserveAspectRatio="xMidYMid meet">
<metadata>
Created by potrace 1.14, written by Peter Selinger 2001-2017
</metadata>
<g transform="translate(0.000000,1563.000000) scale(0.100000,-0.100000)"
fill="#000000" stroke="none">
<path d="M7049 11196 c-3 -3 -45 -10 -94 -16 -279 -35 -527 -159 -735 -369
-130 -131 -218 -260 -280 -412 -12 -30 -29 -68 -36 -86 -8 -17 -14 -41 -14
-53 0 -12 -5 -30 -11 -42 -20 -37 -49 -278 -43 -358 7 -104 33 -269 44 -291 6
-10 10 -27 10 -39 0 -12 6 -36 14 -53 7 -18 24 -56 36 -86 129 -315 403 -580
725 -703 22 -9 58 -23 80 -31 22 -9 78 -23 125 -32 47 -9 95 -18 107 -21 26
-5 37 -34 28 -75 -13 -60 -12 -60 -472 -62 -408 -2 -419 -3 -463 -24 -60 -29
-90 -76 -97 -152 -7 -77 21 -140 80 -179 l41 -27 499 -5 499 -5 24 -28 c31
-36 30 -43 -7 -78 l-31 -29 -360 0 c-351 0 -362 -1 -395 -21 -19 -12 -48 -40
-64 -62 -24 -33 -29 -50 -29 -99 0 -75 27 -129 82 -165 l42 -28 488 -3 488 -3
0 66 0 65 -469 0 -470 0 -20 26 c-26 33 -26 42 0 74 l21 25 364 3 364 3 48 28
c63 37 92 88 92 164 0 82 -40 143 -119 178 -41 18 -70 19 -522 19 -466 0 -480
1 -499 20 -23 23 -26 58 -6 86 15 20 8 20 847 24 85 0 167 95 179 205 l5 50
52 3 c28 2 56 9 62 15 6 8 7 32 3 62 l-7 50 -100 2 c-130 4 -145 7 -145 37 0
28 19 38 60 30 54 -11 99 5 146 52 l45 44 -3 78 -3 77 -55 0 -55 0 -5 -42 c-9
-73 -25 -83 -135 -83 -110 0 -119 -6 -133 -100 -7 -53 -9 -55 -37 -52 -16 2
-41 10 -57 18 l-28 15 -1 132 c-2 214 4 193 -91 319 -47 62 -90 123 -96 135
-7 12 -12 63 -12 114 l0 92 -193 196 -194 196 3 228 c4 243 20 374 52 411 77
93 213 211 310 271 57 35 160 84 180 85 6 0 -32 -67 -55 -97 -31 -40 -41 -107
-21 -131 8 -9 25 -40 38 -69 39 -84 58 -86 184 -24 105 52 165 64 168 36 0 -8
1 -20 2 -25 1 -6 -82 -93 -184 -195 l-185 -185 -126 0 c-122 0 -126 -1 -150
-26 -23 -24 -24 -32 -24 -145 l0 -119 145 -145 c174 -174 180 -176 266 -95 46
43 57 50 81 44 15 -4 35 -12 43 -19 8 -6 39 -22 67 -35 56 -26 55 -25 108
-173 22 -63 47 -75 118 -57 29 7 57 16 62 20 6 4 24 11 42 14 47 11 56 27 43
75 -14 53 -31 62 -94 45 -60 -16 -68 -11 -92 72 -8 28 -22 58 -32 66 -9 8 -79
45 -154 83 -96 46 -145 65 -160 62 -13 -4 -43 -24 -66 -47 -24 -22 -49 -40
-56 -40 -7 0 -51 40 -98 88 -91 94 -112 139 -86 182 12 18 23 20 113 20 l100
0 245 244 c176 176 246 252 248 271 3 21 -12 41 -81 110 -57 58 -92 85 -107
85 -13 0 -68 -23 -123 -51 -89 -46 -101 -49 -115 -36 -13 14 -12 20 13 64 16
26 41 65 56 85 15 21 30 54 33 73 8 39 3 37 162 55 104 12 325 -8 388 -34 l36
-15 0 -105 c0 -126 9 -152 57 -161 35 -6 35 -7 29 -43 -22 -116 -24 -109 53
-212 39 -52 82 -108 95 -125 l26 -30 0 -257 c0 -141 3 -264 6 -273 4 -9 34
-35 68 -57 33 -23 83 -56 111 -75 54 -36 85 -41 129 -18 38 20 50 19 61 -7 6
-13 19 -24 31 -26 27 -4 94 35 94 54 0 18 -47 113 -68 137 -18 21 -54 22 -90
3 -78 -40 -76 -40 -123 -11 -96 59 -89 36 -89 315 l0 247 -39 54 c-22 30 -55
77 -75 105 -19 28 -42 56 -50 63 -22 19 -20 53 9 133 14 38 25 77 25 87 0 27
-42 61 -76 61 -38 0 -54 16 -54 52 0 32 23 47 49 31 9 -5 36 -20 61 -34 194
-104 374 -290 469 -484 57 -116 66 -138 85 -205 44 -157 48 -186 43 -358 -3
-92 -8 -179 -12 -194 -7 -25 -5 -27 49 -39 52 -11 57 -11 70 7 30 40 34 379 6
499 -66 281 -173 478 -360 665 -183 181 -350 277 -615 349 -92 25 -371 52
-386 37z m-821 -1459 l192 -193 0 -90 c0 -89 0 -91 43 -155 23 -36 53 -76 65
-89 13 -14 37 -47 55 -75 31 -48 32 -53 32 -152 -1 -56 -4 -106 -8 -110 -22
-21 -179 80 -284 185 -118 116 -209 249 -263 383 -12 30 -26 63 -31 74 -5 11
-19 62 -32 114 -40 160 -33 520 11 561 16 16 17 9 22 -121 l5 -138 193 -194z"/>
<path d="M7635 9341 c-22 -10 -52 -31 -67 -47 -60 -64 -58 -32 -58 -871 0
-527 4 -781 11 -808 7 -25 28 -56 55 -82 l44 -43 1152 0 1151 0 43 45 c24 24
48 61 53 82 16 56 15 1553 -1 1605 -15 51 -77 114 -125 127 -26 7 -391 11
-1128 11 -1040 0 -1092 -1 -1130 -19z m2215 -140 c0 -5 -116 -116 -257 -247
-142 -131 -373 -345 -513 -475 -140 -130 -265 -241 -277 -247 -42 -23 -68 -14
-134 46 -35 31 -165 151 -289 266 -124 115 -332 308 -462 429 -131 121 -235
224 -232 228 7 12 2164 12 2164 0z m30 -772 c0 -350 -4 -559 -10 -557 -8 3
-150 135 -499 465 l-104 98 297 278 c164 152 301 277 307 277 5 0 9 -217 9
-561z m-1910 280 c160 -149 290 -275 288 -279 -2 -7 -448 -435 -570 -548 l-28
-26 0 562 c0 352 4 562 10 562 5 0 140 -122 300 -271z m1468 -651 c447 -425
428 -406 416 -418 -14 -14 -2166 -9 -2171 6 -3 10 675 665 697 672 5 2 61 -44
122 -102 132 -124 176 -149 262 -150 85 0 136 30 271 158 61 58 111 105 113
106 2 0 132 -123 290 -272z"/>
<path d="M10322 7658 c-15 -15 -17 -264 -2 -302 l10 -26 2570 0 2570 0 -2 168
-3 167 -2565 3 c-1988 1 -2569 -1 -2578 -10z"/>
<path d="M118 7633 c-16 -4 -18 -21 -18 -169 l0 -164 2578 2 2577 3 3 154 c2
104 -1 158 -9 167 -10 12 -401 14 -2563 13 -1403 -1 -2559 -3 -2568 -6z"/>
<path d="M13485 6642 c-67 -22 -155 -108 -179 -177 -11 -30 -20 -92 -23 -157
-10 -198 33 -283 259 -508 173 -173 200 -217 200 -330 1 -85 -17 -117 -79
-139 -34 -12 -48 -13 -83 -2 -62 18 -80 55 -80 164 l0 87 -116 0 -117 0 6
-107 c7 -143 31 -210 102 -279 56 -56 108 -78 207 -89 122 -15 265 34 322 108
93 122 107 336 31 494 -32 65 -59 98 -199 242 -190 195 -216 236 -216 343 0
109 30 149 114 150 82 2 114 -35 123 -141 l6 -71 110 0 110 0 -6 93 c-7 126
-28 179 -96 247 -41 41 -70 60 -110 73 -70 22 -217 22 -286 -1z"/>
<path d="M1787 6643 c-4 -3 -7 -53 -7 -109 l0 -104 219 -2 218 -3 -228 -549
-229 -548 0 -104 0 -104 350 0 350 0 0 110 0 110 -224 2 -224 3 224 539 224
538 0 114 0 114 -333 0 c-184 0 -337 -3 -340 -7z"/>
<path d="M2907 6643 c-4 -3 -7 -348 -7 -765 l0 -758 330 0 330 0 0 110 0 110
-210 0 -210 0 2 223 3 222 163 3 162 2 0 105 0 105 -162 2 -163 3 0 210 0 210
208 3 207 2 0 110 0 110 -323 0 c-178 0 -327 -3 -330 -7z"/>
<path d="M4010 5885 l0 -765 105 0 105 0 2 546 3 545 134 -498 c74 -274 140
-519 148 -545 l14 -48 124 0 125 0 -2 763 -3 762 -105 0 -105 0 -5 -443 -5
-443 -114 423 c-62 233 -117 433 -122 446 -8 21 -12 22 -154 22 l-145 0 0
-765z"/>
<path d="M5240 5885 l0 -765 120 0 120 0 -2 763 -3 762 -117 3 -118 3 0 -766z"/>
<path d="M5880 6540 l0 -110 125 0 125 0 0 -655 0 -655 120 0 120 0 0 655 0
655 125 0 125 0 0 110 0 110 -370 0 -370 0 0 -110z"/>
<path d="M7027 6643 c-4 -3 -7 -348 -7 -765 l0 -758 120 0 120 0 0 325 0 325
140 0 140 0 0 -325 0 -325 120 0 120 0 0 765 0 765 -120 0 -120 0 0 -330 0
-331 -137 3 -138 3 -3 328 -2 327 -113 0 c-63 0 -117 -3 -120 -7z"/>
<path d="M8890 5885 l0 -765 105 0 105 0 1 528 1 527 84 -505 c46 -278 86
-515 89 -527 5 -22 9 -23 118 -23 l112 0 82 533 81 532 1 -532 1 -533 115 0
115 0 -2 763 -3 762 -159 3 c-88 1 -163 -1 -167 -5 -4 -5 -43 -243 -86 -530
-43 -288 -80 -523 -83 -523 -3 0 -43 237 -90 528 l-86 527 -167 3 -167 2 0
-765z"/>
<path d="M10546 6618 c-13 -74 -236 -1476 -236 -1487 0 -7 34 -11 108 -11
l109 0 17 123 c10 67 20 130 23 140 4 15 20 17 148 17 128 0 144 -2 149 -17 2
-10 12 -73 22 -140 l18 -123 121 0 121 0 -122 763 c-68 419 -123 763 -124 765
0 1 -78 2 -174 2 l-174 0 -6 -32z m224 -613 c28 -187 53 -355 56 -372 l6 -33
-116 0 c-64 0 -116 3 -116 8 0 4 25 171 55 372 30 201 55 369 56 375 2 26 12
-32 59 -350z"/>
<path d="M11557 6643 c-4 -3 -7 -348 -7 -765 l0 -758 120 0 120 0 0 765 0 765
-113 0 c-63 0 -117 -3 -120 -7z"/>
<path d="M12270 5885 l0 -765 315 0 315 0 0 110 0 110 -195 0 -195 0 0 655 0
655 -120 0 -120 0 0 -765z"/>
</g>
</svg>
